<svg id="visual" viewBox="0 0 960 200" width="960" height="200" xmlns="http://www.w3.org/2000/svg" xmlns:xlink="http://www.w3.org/1999/xlink" version="1.1"><rect x="0" y="0" width="960" height="200" fill="#FFFFFF"></rect><path d="M0 59L32 59.8C64 60.7 128 62.3 192 57.7C256 53 320 42 384 36.2C448 30.3 512 29.7 576 31.8C640 34 704 39 768 37.3C832 35.7 896 27.3 928 23.2L960 19L960 201L928 201C896 201 832 201 768 201C704 201 640 201 576 201C512 201 448 201 384 201C320 201 256 201 192 201C128 201 64 201 32 201L0 201Z" fill="#77b5fe"></path><path d="M0 88L32 86.5C64 85 128 82 192 81.7C256 81.3 320 83.7 384 79.2C448 74.7 512 63.3 576 61.7C640 60 704 68 768 77.2C832 86.3 896 96.7 928 101.8L960 107L960 201L928 201C896 201 832 201 768 201C704 201 640 201 576 201C512 201 448 201 384 201C320 201 256 201 192 201C128 201 64 201 32 201L0 201Z" fill="#547fba"></path><path d="M0 85L32 94.8C64 104.7 128 124.3 192 126.2C256 128 320 112 384 105.8C448 99.7 512 103.3 576 109.5C640 115.7 704 124.3 768 120C832 115.7 896 98.3 928 89.7L960 81L960 201L928 201C896 201 832 201 768 201C704 201 640 201 576 201C512 201 448 201 384 201C320 201 256 201 192 201C128 201 64 201 32 201L0 201Z" fill="#324d7b"></path><path d="M0 159L32 157C64 155 128 151 192 145.5C256 140 320 133 384 135.3C448 137.7 512 149.3 576 159.5C640 169.7 704 178.3 768 173C832 167.7 896 148.3 928 138.7L960 129L960 201L928 201C896 201 832 201 768 201C704 201 640 201 576 201C512 201 448 201 384 201C320 201 256 201 192 201C128 201 64 201 32 201L0 201Z" fill="#0f2040" style="background: white;"></path></svg>