<svg id="visual" viewBox="0 0 960 200" width="960" height="200" xmlns="http://www.w3.org/2000/svg" xmlns:xlink="http://www.w3.org/1999/xlink" version="1.1"><path d="M0 0L32 10.8C64 21.7 128 43.3 192 43.3C256 43.3 320 21.7 384 11.2C448 0.7 512 1.3 576 14.2C640 27 704 52 768 59.5C832 67 896 57 928 52L960 47L960 201L928 201C896 201 832 201 768 201C704 201 640 201 576 201C512 201 448 201 384 201C320 201 256 201 192 201C128 201 64 201 32 201L0 201Z" fill="#77b5fe"></path><path d="M0 104L32 94.7C64 85.3 128 66.7 192 66C256 65.3 320 82.7 384 82.3C448 82 512 64 576 64.7C640 65.3 704 84.7 768 94.2C832 103.7 896 103.3 928 103.2L960 103L960 201L928 201C896 201 832 201 768 201C704 201 640 201 576 201C512 201 448 201 384 201C320 201 256 201 192 201C128 201 64 201 32 201L0 201Z" fill="#abcdff"></path><path d="M0 141L32 139.3C64 137.7 128 134.3 192 128C256 121.7 320 112.3 384 110.5C448 108.7 512 114.3 576 122.2C640 130 704 140 768 138.2C832 136.3 896 122.7 928 115.8L960 109L960 201L928 201C896 201 832 201 768 201C704 201 640 201 576 201C512 201 448 201 384 201C320 201 256 201 192 201C128 201 64 201 32 201L0 201Z" fill="#d6e5ff"></path><path d="M0 120L32 128.7C64 137.3 128 154.7 192 158.8C256 163 320 154 384 150C448 146 512 147 576 145.5C640 144 704 140 768 141.2C832 142.3 896 148.7 928 151.8L960 155L960 201L928 201C896 201 832 201 768 201C704 201 640 201 576 201C512 201 448 201 384 201C320 201 256 201 192 201C128 201 64 201 32 201L0 201Z" fill="#ffffff"></path></svg>