<svg id="visual" viewBox="0 0 960 200" width="960" height="200" xmlns="http://www.w3.org/2000/svg" xmlns:xlink="http://www.w3.org/1999/xlink" version="1.1"><path d="M0 118L32 126.7C64 135.3 128 152.7 192 162.3C256 172 320 174 384 161.5C448 149 512 122 576 118.8C640 115.7 704 136.3 768 148.8C832 161.3 896 165.7 928 167.8L960 170L960 201L928 201C896 201 832 201 768 201C704 201 640 201 576 201C512 201 448 201 384 201C320 201 256 201 192 201C128 201 64 201 32 201L0 201Z" fill="#0f2040" stroke-linecap="round" stroke-linejoin="miter"></path></svg>