<svg id="visual" viewBox="0 0 960 200" width="960" height="200" xmlns="http://www.w3.org/2000/svg" xmlns:xlink="http://www.w3.org/1999/xlink" version="1.1"><rect x="0" y="0" width="960" height="200" fill="#fff"></rect><path d="M0 40L32 34.3C64 28.7 128 17.3 192 35.3C256 53.3 320 100.7 384 101C448 101.3 512 54.7 576 57.3C640 60 704 112 768 120.8C832 129.7 896 95.3 928 78.2L960 61L960 201L928 201C896 201 832 201 768 201C704 201 640 201 576 201C512 201 448 201 384 201C320 201 256 201 192 201C128 201 64 201 32 201L0 201Z" fill="#333" stroke-linecap="round" stroke-linejoin="miter"></path></svg>