<svg id="visual" viewBox="0 0 960 100" width="960" height="100" xmlns="http://www.w3.org/2000/svg" xmlns:xlink="http://www.w3.org/1999/xlink" version="1.1"><path d="M0 70L32 61C64 52 128 34 192 25.5C256 17 320 18 384 29.3C448 40.7 512 62.3 576 68.8C640 75.3 704 66.7 768 55.7C832 44.7 896 31.3 928 24.7L960 18L960 101L928 101C896 101 832 101 768 101C704 101 640 101 576 101C512 101 448 101 384 101C320 101 256 101 192 101C128 101 64 101 32 101L0 101Z" fill="#0f2040" stroke-linecap="round" stroke-linejoin="miter"></path></svg>