<svg id="visual" viewBox="0 0 960 200" width="960" height="200" xmlns="http://www.w3.org/2000/svg" xmlns:xlink="http://www.w3.org/1999/xlink" version="1.1"><path d="M0 199L32 188C64 177 128 155 192 154.8C256 154.7 320 176.3 384 186.8C448 197.3 512 196.7 576 183.8C640 171 704 146 768 138.5C832 131 896 141 928 146L960 151L960 0L928 0C896 0 832 0 768 0C704 0 640 0 576 0C512 0 448 0 384 0C320 0 256 0 192 0C128 0 64 0 32 0L0 0Z" fill="#77b5fe"></path><path d="M0 94L32 103.3C64 112.7 128 131.3 192 132C256 132.7 320 115.3 384 115.7C448 116 512 134 576 133.3C640 132.7 704 113.3 768 103.8C832 94.3 896 94.7 928 94.8L960 95L960 0L928 0C896 0 832 0 768 0C704 0 640 0 576 0C512 0 448 0 384 0C320 0 256 0 192 0C128 0 64 0 32 0L0 0Z" fill="#abcdff"></path><path d="M0 57L32 58.7C64 60.3 128 63.7 192 70C256 76.3 320 85.7 384 87.5C448 89.3 512 83.7 576 75.8C640 68 704 58 768 59.8C832 61.7 896 75.3 928 82.2L960 89L960 0L928 0C896 0 832 0 768 0C704 0 640 0 576 0C512 0 448 0 384 0C320 0 256 0 192 0C128 0 64 0 32 0L0 0Z" fill="#d6e5ff"></path><path d="M0 78L32 69.3C64 60.7 128 43.3 192 39.2C256 35 320 44 384 48C448 52 512 51 576 52.5C640 54 704 58 768 56.8C832 55.7 896 49.3 928 46.2L960 43L960 0L928 0C896 0 832 0 768 0C704 0 640 0 576 0C512 0 448 0 384 0C320 0 256 0 192 0C128 0 64 0 32 0L0 0Z" fill="#ffffff"></path></svg>