<svg id="visual" viewBox="0 0 960 200" width="960" height="200" xmlns="http://www.w3.org/2000/svg" xmlns:xlink="http://www.w3.org/1999/xlink" version="1.1"><path d="M0 136L26.7 143.2C53.3 150.3 106.7 164.7 160 164.7C213.3 164.7 266.7 150.3 320 144.2C373.3 138 426.7 140 480 143C533.3 146 586.7 150 640 155C693.3 160 746.7 166 800 167.8C853.3 169.7 906.7 167.3 933.3 166.2L960 165L960 0L933.3 0C906.7 0 853.3 0 800 0C746.7 0 693.3 0 640 0C586.7 0 533.3 0 480 0C426.7 0 373.3 0 320 0C266.7 0 213.3 0 160 0C106.7 0 53.3 0 26.7 0L0 0Z" fill="#77b5fe"></path><path d="M0 97L26.7 104.7C53.3 112.3 106.7 127.7 160 129.5C213.3 131.3 266.7 119.7 320 114.2C373.3 108.7 426.7 109.3 480 110.2C533.3 111 586.7 112 640 116.7C693.3 121.3 746.7 129.7 800 132C853.3 134.3 906.7 130.7 933.3 128.8L960 127L960 0L933.3 0C906.7 0 853.3 0 800 0C746.7 0 693.3 0 640 0C586.7 0 533.3 0 480 0C426.7 0 373.3 0 320 0C266.7 0 213.3 0 160 0C106.7 0 53.3 0 26.7 0L0 0Z" fill="#5282c3"></path><path d="M0 75L26.7 79.3C53.3 83.7 106.7 92.3 160 91.7C213.3 91 266.7 81 320 80C373.3 79 426.7 87 480 86.3C533.3 85.7 586.7 76.3 640 73C693.3 69.7 746.7 72.3 800 70.5C853.3 68.7 906.7 62.3 933.3 59.2L960 56L960 0L933.3 0C906.7 0 853.3 0 800 0C746.7 0 693.3 0 640 0C586.7 0 533.3 0 480 0C426.7 0 373.3 0 320 0C266.7 0 213.3 0 160 0C106.7 0 53.3 0 26.7 0L0 0Z" fill="#2c538a"></path><path d="M0 37L26.7 37C53.3 37 106.7 37 160 39.7C213.3 42.3 266.7 47.7 320 51.2C373.3 54.7 426.7 56.3 480 52.7C533.3 49 586.7 40 640 37.8C693.3 35.7 746.7 40.3 800 40.2C853.3 40 906.7 35 933.3 32.5L960 30L960 0L933.3 0C906.7 0 853.3 0 800 0C746.7 0 693.3 0 640 0C586.7 0 533.3 0 480 0C426.7 0 373.3 0 320 0C266.7 0 213.3 0 160 0C106.7 0 53.3 0 26.7 0L0 0Z" fill="#002855"></path></svg>